<svg xmlns="http://www.w3.org/2000/svg" xmlns:xlink="http://www.w3.org/1999/xlink" width="32" height="32" viewBox="0 0 32 32">
  <defs>
    <clipPath id="clip-path">
      <rect id="Rectangle_34" data-name="Rectangle 34" width="32" height="32" transform="translate(7.457 8.64)" fill="#a45973" stroke="#707070" stroke-width="1"/>
    </clipPath>
  </defs>
  <g id="dribbble" transform="translate(0.36)">
    <g id="Mask_Group_6" data-name="Mask Group 6" transform="translate(-7.817 -8.64)" clip-path="url(#clip-path)">
      <g id="__TEMP__SVG__" transform="translate(8.524 8.64)">
        <path id="Path_1067" data-name="Path 1067" d="M.636,16.571V16.7A16.621,16.621,0,0,0,4.155,26.954a15.25,15.25,0,0,0,4.586,3.916,14.034,14.034,0,0,0,6.828,1.767,14.634,14.634,0,0,0,12.15-6.7,16.73,16.73,0,0,0,2.783-9.3A16.469,16.469,0,0,0,25.518,4.705a14.21,14.21,0,0,0-20.225.323A16.209,16.209,0,0,0,1.546,11.12a16.987,16.987,0,0,0-.91,5.452Zm26.447,4.457a13.912,13.912,0,0,0,.7-4.392,13.545,13.545,0,0,0-3.5-9.176A15.511,15.511,0,0,1,20,12.342a17.069,17.069,0,0,1,1,5.571,14.362,14.362,0,0,1,3.071,1.123,14.767,14.767,0,0,1,3.006,1.993Zm-6.3-.18a12.036,12.036,0,0,1,5.065,2.867A12.094,12.094,0,0,1,16.356,29.7,15.976,15.976,0,0,0,19.6,24.858a16.935,16.935,0,0,0,1.181-4.011Zm-2.505-3.307a13.96,13.96,0,0,0-.672-3.755,14.032,14.032,0,0,1-13.759-.859,13.965,13.965,0,0,0-.5,3.709,13.678,13.678,0,0,0,2.264,7.593,14.64,14.64,0,0,1,12.663-6.688ZM7.487,26.454a12.031,12.031,0,0,1,10.6-6.007,13.8,13.8,0,0,1-.948,3.18,12.769,12.769,0,0,1-4.732,5.658,11.959,11.959,0,0,1-4.924-2.83ZM15.569,3.546A11.588,11.588,0,0,1,22.15,5.6a12.775,12.775,0,0,1-3.366,4.1,15.306,15.306,0,0,0-5.893-5.838,11.479,11.479,0,0,1,2.678-.316ZM11.233,6.231a12.476,12.476,0,0,1,5.2,4.931,11.452,11.452,0,0,1-10.1-.112,12.107,12.107,0,0,1-1.417-.833A12.8,12.8,0,0,1,9.225,5.446a11.979,11.979,0,0,1,2.009.785Z" transform="translate(-0.636 -0.636)" fill="#a45973" fill-rule="evenodd"/>
      </g>
    </g>
  </g>
</svg>
